HIERARCHY
ROOT Hips
{
	OFFSET 0.000000 0.000000 0.000000
	CHANNELS 6 Xposition Yposition Zposition Zrotation Yrotation Xrotation 
	JOINT LHipJoint
	{
		OFFSET 0.000000 0.000000 0.000000
		CHANNELS 3 Zrotation Yrotation Xrotation
		JOINT LeftUpLeg
		{
			OFFSET 1.363060 -1.794630 0.839290
			CHANNELS 3 Zrotation Yrotation Xrotation
			JOINT LeftLeg
			{
				OFFSET 2.448110 -6.726130 0.000000
				CHANNELS 3 Zrotation Yrotation Xrotation
				JOINT LeftFoot
				{
					OFFSET 2.562200 -7.039590 0.000000
					CHANNELS 3 Zrotation Yrotation Xrotation
					JOINT LeftToeBase
					{
						OFFSET 0.157640 -0.433110 2.322550
						CHANNELS 3 Zrotation Yrotation Xrotation
						End Site
						{
							OFFSET 0.000000 0.000000 0.000000
						}
					}
				}
			}
		}
	}
	JOINT RHipJoint
	{
		OFFSET 0.000000 0.000000 0.000000
		CHANNELS 3 Zrotation Yrotation Xrotation
		JOINT RightUpLeg
		{
			OFFSET -1.305520 -1.794630 0.839290
			CHANNELS 3 Zrotation Yrotation Xrotation
			JOINT RightLeg
			{
				OFFSET -2.542530 -6.985550 0.000000
				CHANNELS 3 Zrotation Yrotation Xrotation
				JOINT RightFoot
				{
					OFFSET -2.568260 -7.056230 0.000000
					CHANNELS 3 Zrotation Yrotation Xrotation
					JOINT RightToeBase
					{
						OFFSET -0.164730 -0.452590 2.363150
						CHANNELS 3 Zrotation Yrotation Xrotation
						End Site
						{
							OFFSET 0.000000 0.000000 0.000000
						}
					}
				}
			}
		}
	}
	JOINT LowerBack
	{
		OFFSET 0.000000 0.000000 0.000000
		CHANNELS 3 Zrotation Yrotation Xrotation
		JOINT Spine
		{
			OFFSET 0.028270 2.035590 -0.193380
			CHANNELS 3 Zrotation Yrotation Xrotation
			JOINT Spine1
			{
				OFFSET 0.056720 2.048850 -0.042750
				CHANNELS 3 Zrotation Yrotation Xrotation
				JOINT Neck
				{
					OFFSET 0.000000 0.000000 0.000000
					CHANNELS 3 Zrotation Yrotation Xrotation
					JOINT Neck1
					{
						OFFSET -0.054170 1.746240 0.172020
						CHANNELS 3 Zrotation Yrotation Xrotation
						JOINT Head
						{
							OFFSET 0.104070 1.761360 -0.123970
							CHANNELS 3 Zrotation Yrotation Xrotation
							End Site
							{
								OFFSET 0.000000 0.000000 0.000000
							}
						}
					}
				}
				JOINT LeftShoulder
				{
					OFFSET 0.000000 0.000000 0.000000
					CHANNELS 3 Zrotation Yrotation Xrotation
					JOINT LeftArm
					{
						OFFSET 3.362410 1.200890 -0.311210
						CHANNELS 3 Zrotation Yrotation Xrotation
						JOINT LeftForeArm
						{
							OFFSET 4.983000 -0.000000 -0.000000
							CHANNELS 3 Zrotation Yrotation Xrotation
							JOINT LeftHand
							{
								OFFSET 3.483560 -0.000000 -0.000000
								CHANNELS 3 Zrotation Yrotation Xrotation
								JOINT LeftFingerBase
								{
									OFFSET 0.000000 0.000000 0.000000
									CHANNELS 3 Zrotation Yrotation Xrotation
									JOINT LeftHandIndex1
									{
										OFFSET 0.715260 -0.000000 -0.000000
										CHANNELS 3 Zrotation Yrotation Xrotation
										End Site
										{
											OFFSET 0.000000 0.000000 0.000000
										}
									}
								}
								JOINT LThumb
								{
									OFFSET 0.000000 0.000000 0.000000
									CHANNELS 3 Zrotation Yrotation Xrotation
									End Site
									{
										OFFSET 0.000000 0.000000 0.000000
									}
								}
							}
						}
					}
				}
				JOINT RightShoulder
				{
					OFFSET 0.000000 0.000000 0.000000
					CHANNELS 3 Zrotation Yrotation Xrotation
					JOINT RightArm
					{
						OFFSET -3.136600 1.374050 -0.404650
						CHANNELS 3 Zrotation Yrotation Xrotation
						JOINT RightForeArm
						{
							OFFSET -5.241900 -0.000000 -0.000000
							CHANNELS 3 Zrotation Yrotation Xrotation
							JOINT RightHand
							{
								OFFSET -3.444170 -0.000000 -0.000000
								CHANNELS 3 Zrotation Yrotation Xrotation
								JOINT RightFingerBase
								{
									OFFSET 0.000000 0.000000 0.000000
									CHANNELS 3 Zrotation Yrotation Xrotation
									JOINT RightHandIndex1
									{
										OFFSET -0.622530 -0.000000 -0.000000
										CHANNELS 3 Zrotation Yrotation Xrotation
										End Site
										{
											OFFSET 0.000000 0.000000 0.000000
										}
									}
								}
								JOINT RThumb
								{
									OFFSET 0.000000 0.000000 0.000000
									CHANNELS 3 Zrotation Yrotation Xrotation
									End Site
									{
										OFFSET 0.000000 0.000000 0.000000
									}
								}
							}
						}
					}
				}
			}
		}
	}
}
MOTION
Frames: 11
Frame Time: 0.008333
-31.808331 17.238674 -1.283890 122.161865 84.134258 137.545602 -1.103015 3.363096 3.784606 -15.864358 2.224621 13.806976 -1.325758 4.890376 15.139216 -0.577373 8.603878 21.473019 0.821000 -5.781600 -16.151900 -6.348171 2.428602 -4.130537 9.836379 16.143198 -55.951991 -16.445147 -24.062454 79.229119 0.391182 -1.749249 2.293446 -3.264200 11.110900 -32.654900 -9.599737 -5.091043 18.069652 1.393381 -6.950605 -2.854473 9.950764 -4.604023 2.694191 -11.604725 1.198320 -10.310604 3.621121 3.011369 7.506809 6.067000 2.315200 0.955800 0.687227 -0.510378 1.037685 -73.928500 -1.283834 42.406835 84.669910 -60.092146 -56.788267 -1.592743 -0.206176 -23.220359 36.127354 19.527894 13.834500 -7.125000 0.000000 0.000000 9.975700 52.738100 1.914800 -3.363282 0.379010 0.883459 78.255915 19.576853 1.313185 -73.048677 56.007118 -55.749093 1.275643 1.072647 -43.657469 -21.093009 26.228796 -10.436100 7.125000 0.000000 0.000000 4.255200 -2.119600 4.106300 
-31.009276 17.286242 -1.319707 115.377010 84.770168 130.580698 -0.801296 3.715471 3.942641 -16.662287 1.470802 17.521565 -1.311785 4.462703 13.647808 -2.369065 14.298619 18.261680 0.829700 -5.811000 -16.237200 -6.116799 2.699657 -4.407854 9.593819 16.012162 -55.439061 -13.763364 -23.571272 72.101387 -0.053817 0.054542 3.140285 -3.265600 11.113100 -32.662100 -9.362763 -5.361561 17.484544 1.490706 -7.185480 -2.865470 9.400616 -4.768661 2.487557 -8.148240 -1.550627 -9.120883 3.259462 -0.926203 5.072235 4.287100 0.608500 -0.802200 1.147609 -0.319069 1.285238 -72.474611 -0.077868 43.197281 85.684761 -60.232476 -57.571069 -1.618194 -0.328882 -25.064795 35.233044 19.621269 13.542900 -7.125000 0.000000 0.000000 9.064700 52.744200 1.738900 -2.899643 0.431272 1.215342 79.991183 19.715677 1.667923 -77.255194 57.099798 -59.557329 1.228171 1.083278 -42.525976 -20.060970 25.118385 -9.508100 7.125000 0.000000 0.000000 4.764800 -3.517800 4.479200 
-30.213836 17.321947 -1.352474 108.216922 85.046001 123.180737 -0.466562 3.951828 4.074210 -17.617542 1.215360 20.602503 -1.200341 4.361953 13.232375 -4.114219 19.317370 14.572400 0.523600 -4.637200 -12.876500 -5.808443 2.993209 -4.669374 9.344416 15.385843 -54.657414 -11.177323 -22.732235 65.173945 -0.418049 1.318871 4.092248 -3.140900 10.919700 -32.009500 -9.315311 -5.587804 17.222787 1.542594 -7.472043 -2.909460 9.517580 -4.927330 2.405853 -7.906636 -1.226003 -8.855653 3.021854 -0.475348 4.865275 4.384500 0.829000 -1.234400 1.177235 -0.221990 1.271153 -71.375359 1.992903 43.804603 87.802910 -60.388848 -59.249091 -1.595796 -0.357523 -25.643226 34.102078 18.877050 12.566300 -7.125000 0.000000 0.000000 7.856300 51.705800 1.304100 -2.904557 0.357854 1.337358 81.496777 19.839815 2.270978 -82.226237 58.179325 -63.862312 1.181423 1.048622 -39.600914 -20.529129 23.636900 -9.142900 7.125000 0.000000 0.000000 4.349800 -5.065500 3.960400 
-29.416588 17.353810 -1.380269 100.439816 85.025720 115.059787 -0.163455 4.139810 4.257971 -18.393105 1.821162 23.149900 -1.069033 4.327753 13.177659 -4.890039 21.933383 13.705893 1.162400 -6.844400 -19.255300 -5.424243 3.299353 -4.898907 9.097254 14.479524 -53.529905 -8.645289 -21.540647 58.223527 -0.680216 1.886955 5.331790 -3.111800 10.873900 -31.855800 -9.718813 -5.724010 17.454195 1.634578 -7.743319 -3.014828 10.499707 -5.107753 1.982866 -8.336782 -0.797506 -8.917901 2.912591 0.155662 4.901569 4.251800 1.096300 -1.118000 1.253477 -0.282944 1.163980 -71.187086 4.037001 44.558222 87.927787 -60.534484 -58.955815 -1.569234 -0.194586 -24.517108 32.989753 16.833616 10.716400 -7.125000 0.000000 0.000000 6.695000 49.028500 0.667900 -2.860491 0.364993 1.360567 82.319862 19.908777 3.208089 -87.252916 58.994274 -67.902543 1.126864 1.002441 -35.703287 -21.721412 22.335094 -9.108600 7.125000 0.000000 0.000000 3.511100 -6.344900 3.107600 
-28.614143 17.391774 -1.399025 93.764458 84.877819 108.089578 0.063983 4.194579 4.367795 -18.854322 2.880219 24.719408 -0.807187 4.675100 14.306180 -5.037571 22.572216 13.768256 1.690900 -8.190200 -23.293300 -5.018193 3.608193 -5.146041 8.972615 13.452680 -52.133942 -6.290912 -20.067532 51.500520 -0.855545 1.835872 6.940992 -3.123600 10.892500 -31.918200 -10.213689 -5.913876 17.276200 1.727798 -8.017699 -3.052214 11.481938 -5.332504 2.061641 -8.943152 -0.340485 -8.911878 2.777472 0.826568 4.962214 4.187200 1.415300 -1.205500 1.303644 -0.193859 1.119138 -71.263902 5.763617 45.273534 86.302357 -60.820977 -57.251228 -1.557127 0.017582 -22.657358 33.804902 15.307951 9.909400 -7.125000 0.000000 0.000000 7.464300 47.193300 0.406200 -2.823752 0.205788 1.440692 83.105456 20.487002 4.456342 -92.102415 59.564557 -71.568359 1.069968 0.916561 -31.727785 -22.911157 21.258037 -9.116400 7.125000 0.000000 0.000000 2.711500 -7.359100 2.344600 
-27.813505 17.432224 -1.408177 88.321406 84.658580 102.609373 0.304486 4.138680 4.318739 -19.177455 4.126099 25.375932 -0.432611 5.332089 16.411028 -4.867815 21.928587 13.697306 1.318600 -7.273000 -20.526700 -4.556959 3.956176 -5.478546 8.828117 12.282070 -50.741724 -4.226047 -18.438483 45.267086 -1.028650 1.582178 9.009893 -3.194800 11.003900 -32.292900 -9.700854 -6.126205 16.021428 1.619259 -8.152243 -2.935395 9.644709 -5.391568 3.282766 -7.783690 -0.178655 -9.206005 2.762590 0.994079 4.868422 4.077600 1.536900 -1.495600 1.112374 0.239797 1.117674 -69.237455 6.619031 46.683643 83.162349 -61.109849 -54.901694 -1.472719 -0.094208 -20.917603 35.232122 15.850939 10.927500 -7.125000 0.000000 0.000000 8.862400 48.297400 0.726200 -3.106499 -0.153178 1.687969 85.873946 22.061264 5.442871 -97.252154 59.803322 -75.400176 1.054700 0.676464 -28.187150 -23.865613 20.410961 -9.157000 7.125000 0.000000 0.000000 2.122900 -7.969800 1.809300 
-27.024958 17.454370 -1.413149 81.883480 84.177079 96.042013 0.436587 3.987301 4.387343 -19.657942 5.565966 25.263403 0.099462 6.303797 19.512739 -4.251395 20.025964 14.587947 1.329100 -7.300500 -20.608900 -4.127568 4.222736 -5.593310 8.611436 11.177784 -49.594321 -2.535277 -16.796165 39.802000 -1.277765 1.572954 10.975167 -3.562900 11.554800 -34.174700 -10.666467 -6.091451 16.170494 1.735841 -8.274609 -3.062162 11.338137 -5.524858 2.761060 -8.709767 0.249981 -9.193739 2.670433 1.634019 5.003424 4.014800 1.805300 -1.330400 1.272520 0.134736 0.997016 -70.127132 9.194500 47.835101 80.841800 -61.399556 -52.494466 -1.573313 0.030296 -18.955601 36.015305 16.824942 11.833900 -7.125000 0.000000 0.000000 9.745800 49.418100 1.070900 -2.989643 -0.135321 1.652770 86.067842 22.701706 6.875134 -102.035341 59.660897 -78.783103 0.967100 0.603567 -25.627453 -24.167257 20.017082 -9.056900 7.125000 0.000000 0.000000 1.961600 -8.375900 1.655900 
-26.242286 17.459341 -1.416877 73.571552 83.863420 87.658724 0.719669 3.733359 4.248914 -20.252537 7.130084 24.696718 0.820749 7.547695 23.603328 -3.594664 17.637748 14.787830 1.473600 -7.670800 -21.718600 -3.599362 4.500080 -5.709287 8.492240 10.301912 -48.515545 -1.227431 -15.347539 35.373707 -1.654763 1.915469 14.044504 -2.528700 9.890000 -28.621100 -10.586764 -6.021746 15.436535 1.676244 -8.152215 -3.042388 10.663317 -5.451048 3.191684 -8.238311 0.651540 -9.315717 2.594417 2.146475 5.155209 3.881700 2.030400 -1.290000 1.229182 0.319183 0.920667 -69.293410 11.203607 49.464368 77.345975 -61.563130 -49.556778 -1.470506 0.050978 -17.808514 36.641017 15.530065 11.179500 -7.125000 0.000000 0.000000 10.243100 48.054900 0.779600 -3.133764 -0.294926 1.749000 87.866150 24.121980 8.501941 -106.462161 59.187093 -81.917060 0.923190 0.402341 -22.838347 -24.059169 19.865777 -8.959100 7.125000 0.000000 0.000000 2.111900 -8.423500 1.781000 
-25.460630 17.446234 -1.428063 66.477081 83.547360 80.260436 0.954673 3.430907 4.063204 -20.736803 8.625442 23.933196 1.773815 8.998084 28.534086 -3.016658 15.359126 14.521239 1.595700 -7.967600 -22.615800 -3.187940 4.626404 -5.698333 9.073976 9.044540 -47.607677 -0.370009 -14.188441 32.288819 -1.958103 2.415153 15.466781 -2.760700 10.297200 -29.944600 -10.738542 -5.858810 15.198883 1.693035 -7.933354 -3.052923 10.990857 -5.370335 3.181213 -8.220429 1.116753 -9.163393 2.342869 2.786303 5.292308 3.549300 2.289800 -1.266800 1.322126 0.362272 0.857049 -69.463461 13.417324 51.278638 73.377994 -61.629286 -46.055842 -1.553871 -0.226983 -17.677114 34.148400 18.387505 12.350300 -7.125000 0.000000 0.000000 7.867700 51.316900 1.230700 -3.080125 -0.352285 1.787928 88.505508 25.255943 10.246485 -110.243994 58.558095 -84.555813 0.864081 0.265240 -19.451641 -24.213316 20.011614 -9.070800 7.125000 0.000000 0.000000 2.101700 -8.186000 1.782200 
-24.685867 17.407931 -1.447836 60.981289 83.098927 74.320084 1.143446 3.110619 3.803480 -21.157406 10.200210 22.885129 3.003994 10.599834 34.223132 -2.496370 13.348090 14.281621 1.914900 -8.686500 -24.819600 -2.881774 4.660706 -5.631404 9.776196 7.669245 -46.710797 0.121144 -13.376025 30.383545 -2.116052 2.360961 17.175911 -2.356100 9.571400 -27.599600 -10.887311 -5.812680 15.132902 1.735700 -7.824750 -3.031810 11.503413 -5.358947 3.188256 -8.347153 0.931586 -8.784037 2.556808 2.545747 4.523421 3.634200 2.282300 -2.079200 1.405495 0.420631 0.890240 -70.300641 15.502196 52.776837 68.738902 -61.506016 -42.109371 -1.593138 -0.390427 -18.656309 33.568576 19.583608 12.962100 -7.125000 0.000000 0.000000 7.280700 52.735400 1.391800 -3.048441 -0.408964 1.907802 88.772159 26.757562 12.437001 -113.511911 57.829973 -86.837037 0.776947 0.158123 -15.469521 -23.880883 19.715557 -8.782900 7.125000 0.000000 0.000000 2.361200 -8.536000 1.986300 
-23.921499 17.347143 -1.473372 55.517739 82.731145 68.236109 1.384842 2.807409 3.459039 -21.237410 12.001166 21.600944 4.551723 12.256727 40.599270 -2.121657 11.828786 13.738082 2.121300 -9.114300 -26.153500 -2.579656 4.586691 -5.455896 10.688592 6.318909 -45.737601 0.305306 -12.949279 29.635373 -2.159700 2.251268 18.005203 -1.638300 8.068200 -22.921500 -10.597878 -5.715986 15.275238 1.714437 -7.645503 -3.010440 11.546285 -5.246726 3.169337 -9.082406 1.080841 -8.791948 3.360931 2.707486 4.179626 4.231700 2.500900 -2.195000 1.274993 0.415364 0.824796 -70.935627 17.853517 54.465998 63.455393 -60.950549 -37.817981 -1.523962 -0.475240 -19.718762 33.782799 18.719829 12.561200 -7.125000 0.000000 0.000000 7.505600 51.893200 1.279900 -3.301793 -0.452679 1.972435 89.286801 28.262641 14.746972 -116.763941 56.865628 -89.182530 0.677056 0.042862 -11.387600 -22.791957 18.853633 -7.987100 7.125000 0.000000 0.000000 3.068000 -9.577200 2.518500 
